<svg xmlns="http://www.w3.org/2000/svg" viewBox="0 0 500 500"><g id="freepik--background-complete--inject-69"><path d="M383.38,39.58a2.91,2.91,0,1,1-2.91-2.91A2.91,2.91,0,0,1,383.38,39.58Z" style="fill:#e0e0e0"></path><path d="M398.68,235.86s0-.14,0-.41,0-.68,0-1.19c0-1.07,0-2.62-.05-4.6,0-4,0-9.86-.07-17.13,0-14.59-.06-35-.09-58.19l.06.17L386,139.42l-5.59-6.77-.06-.07v-.09c0-25.9.06-49,.08-65.59,0-8.28.06-15,.08-19.59,0-2.28,0-4.06.05-5.3,0-.58,0-1,0-1.37s0-.47,0-.47,0,.16,0,.47,0,.79,0,1.37c0,1.24,0,3,0,5.3,0,4.63,0,11.31.08,19.59,0,16.62.05,39.69.09,65.59l-.06-.17,5.59,6.77,12.46,15.09.06.07v.09c0,23.23-.07,43.6-.09,58.19,0,7.27-.06,13.09-.08,17.13,0,2,0,3.53,0,4.6,0,.51,0,.9,0,1.19S398.68,235.86,398.68,235.86Z" style="fill:#e0e0e0"></path><path d="M438.78,225.53a16.36,16.36,0,0,1-3,3.13l.77,3.92-6.05,2.69-2.39-3.21a16.34,16.34,0,0,1-4.31.11l-2.23,3.32-6.17-2.38.57-4a16.3,16.3,0,0,1-3.12-3L409,227l-2.69-6,3.21-2.39a15.92,15.92,0,0,1-.11-4.31L406.05,212l2.38-6.17,4,.58a16.06,16.06,0,0,1,3-3.13l-.77-3.92,6.05-2.69,2.39,3.21a16.77,16.77,0,0,1,4.31-.11l2.23-3.32,6.17,2.38-.58,4a16.36,16.36,0,0,1,3.13,3l3.92-.77,2.68,6-3.2,2.39a16.77,16.77,0,0,1,.11,4.31l3.32,2.23-2.38,6.17-4-.58Zm-6.68-6.74a7.1,7.1,0,1,0-9.18,4.07A7.1,7.1,0,0,0,432.1,218.79Z" style="fill:none"></path><path d="M432.1,218.79a5.44,5.44,0,0,1-.77,1.58,7,7,0,0,1-3.84,2.81,7.19,7.19,0,0,1-3.33.2,7.3,7.3,0,0,1-3.46-1.65,6.58,6.58,0,0,1-1.37-1.59,6.88,6.88,0,0,1-.89-2,7.23,7.23,0,0,1,3.1-8.05,6.85,6.85,0,0,1,2-.89,6.77,6.77,0,0,1,2.08-.25,7.16,7.16,0,0,1,7,8.14,5.27,5.27,0,0,1-.49,1.69c-.05,0,.21-.6.34-1.71a7,7,0,0,0-6.83-7.75,6.4,6.4,0,0,0-2,.26,6.31,6.31,0,0,0-1.88.84,6.89,6.89,0,0,0-2.94,7.61,6.51,6.51,0,0,0,.84,1.9,6.69,6.69,0,0,0,1.28,1.51,6.95,6.95,0,0,0,6.47,1.46,7.09,7.09,0,0,0,3.79-2.63C431.86,219.37,432.05,218.77,432.1,218.79Z" style="fill:#e0e0e0"></path><path d="M438.78,225.53l.25,0,.75.09,3,.4-.07,0L445,219.9l0,.12-3.33-2.21-.06,0v-.07a16.33,16.33,0,0,0-.12-4.28l0-.08.07-.05,3.2-2.4-.05.18-2.7-6,.18.1-3.92.78-.1,0-.06-.08a16.16,16.16,0,0,0-3.1-2.94l-.09-.06,0-.11c.18-1.22.37-2.58.57-3.95l.12.19-6.18-2.37.22-.07-2.22,3.32-.07.1-.11,0a16.15,16.15,0,0,0-4.26.12h-.12l-.07-.09-2.39-3.21.24.07-6.05,2.68.12-.22c.24,1.24.51,2.57.77,3.92l0,.12-.1.08a16.29,16.29,0,0,0-2.94,3.08h0c-.08,0,.2-.08-.19.09h-.12l-.13,0-.25,0-.49-.07-1-.14-2-.29.22-.13c-.8,2.09-1.6,4.15-2.38,6.18l-.08-.24,3.32,2.22.1.07v.12a16,16,0,0,0,.1,4.26l0,.12-.09.07-3.21,2.39.06-.24c.91,2.07,1.81,4.09,2.68,6.05l-.21-.1,3.92-.77.11,0,.07.08a15.94,15.94,0,0,0,3.09,2.95l.08.06v.11c-.2,1.35-.4,2.67-.59,3.95l-.1-.18,6.17,2.39-.19.06,2.24-3.31.05-.08h.08a16.39,16.39,0,0,0,4.28-.09l.08,0,.05.07c.86,1.17,1.64,2.22,2.38,3.21l-.15,0,6.06-2.66-.05.1c-.3-1.57-.54-2.86-.75-3.93v0l0,0a17.29,17.29,0,0,0,2.34-2.25l.51-.62a2,2,0,0,1,.17-.21l-.14.23c-.11.14-.26.36-.49.64a15.62,15.62,0,0,1-2.3,2.31l0-.06.8,3.91v.08l-.06,0-6,2.71-.09,0-.06-.07c-.74-1-1.52-2-2.4-3.2l.13.05a16,16,0,0,1-4.35.12l.14-.06-2.22,3.32-.07.11-.11-.05-6.18-2.36-.13-.05,0-.14c.18-1.28.37-2.6.57-4l.07.16a16.27,16.27,0,0,1-3.16-3l.18.07-3.93.77-.14,0-.07-.13L406.1,221l-.07-.14.13-.09,3.2-2.4-.07.19a16.28,16.28,0,0,1-.12-4.36l.09.18-3.32-2.22-.14-.09.06-.15c.78-2,1.58-4.09,2.38-6.18l.06-.15.16,0,2,.28,1,.15.5.07.25,0,.13,0h.12l-.2.09h0a16.8,16.8,0,0,1,3-3.16l-.07.2c-.26-1.35-.53-2.68-.77-3.92l0-.16.15-.07,6.05-2.68.14-.06.1.12,2.38,3.21-.18-.07a16.46,16.46,0,0,1,4.36-.11l-.18.08,2.23-3.31.08-.13.14.06,6.18,2.38.13.05,0,.15c-.2,1.38-.4,2.73-.58,3.95l-.07-.16a16.48,16.48,0,0,1,3.15,3l-.17-.06,3.93-.77.13,0,.05.11c.93,2.13,1.83,4.15,2.67,6.06l0,.1-.09.07-3.21,2.38.05-.12a15.91,15.91,0,0,1,.09,4.34l-.05-.11,3.31,2.24.07.05,0,.07c-1,2.51-1.79,4.59-2.41,6.16l0,.05h0l-2.93-.47-.76-.12Z" style="fill:#e0e0e0"></path><path d="M470,168.75a25.25,25.25,0,0,1-4.69,4.93l1.22,6.19L457,184.1,453.22,179a25.33,25.33,0,0,1-6.8.17l-3.52,5.24-9.74-3.75.92-6.24a25.59,25.59,0,0,1-4.93-4.7L423,171l-4.24-9.54,5.06-3.77a25.75,25.75,0,0,1-.17-6.8l-5.24-3.51,3.76-9.74,6.24.91a25.54,25.54,0,0,1,4.69-4.93l-1.22-6.19,9.54-4.23,3.77,5.06a25.41,25.41,0,0,1,6.81-.17l3.51-5.24,9.74,3.75-.91,6.24a25.58,25.58,0,0,1,4.93,4.7l6.19-1.23,4.23,9.55-5.06,3.77a25.75,25.75,0,0,1,.17,6.8l5.24,3.51-3.76,9.74-6.24-.91Zm-10.54-10.64A11.2,11.2,0,1,0,445,164.53,11.2,11.2,0,0,0,459.46,158.11Z" style="fill:#ebebeb;fill-rule:evenodd"></path><circle cx="92.31" cy="204.4" r="3" style="fill:#e0e0e0"></circle><path d="M92.31,299.59c-.14,0-.26-20.82-.26-46.5s.12-46.51.26-46.51.26,20.81.26,46.51S92.46,299.59,92.31,299.59Z" style="fill:#e0e0e0"></path><path d="M204.47,60a3,3,0,1,1-3-3A3,3,0,0,1,204.47,60Z" style="fill:#e0e0e0"></path><path d="M201.47,251.14c-.15,0-.26-42.3-.26-94.46s.11-94.48.26-94.48.26,42.29.26,94.48S201.61,251.14,201.47,251.14Z" style="fill:#e0e0e0"></path><path d="M44.24,172.05A3.21,3.21,0,1,1,41,168.84,3.21,3.21,0,0,1,44.24,172.05Z" style="fill:#e0e0e0"></path><path d="M41.22,172.05s0,.17,0,.5,0,.84,0,1.48c0,1.32,0,3.24,0,5.73,0,5,0,12.33.07,21.51,0,18.41.05,44.36.09,74.59v.08l0,.07c-4.55,6.31-9.32,12.91-14.21,19.7l.05-.15v26c0,22.77,0,44.39,0,63.7l-.06-.15L44.41,406l0,.05v.08c0,19.26-.07,35.09-.09,46.12,0,5.51,0,9.81,0,12.75,0,1.46,0,2.57,0,3.34s0,1.14,0,1.14,0-.39,0-1.14,0-1.88,0-3.34c0-2.94,0-7.24-.06-12.75,0-11,0-26.86-.09-46.12l0,.13L26.82,385.41l-.06-.07v-.08c0-19.31,0-40.93,0-63.7V295.47l.05-.06L41,275.72l-.05.14c0-30.23.07-56.18.09-74.59,0-9.18.06-16.48.07-21.51,0-2.49,0-4.41,0-5.73,0-.64,0-1.13,0-1.48S41.22,172.05,41.22,172.05Z" style="fill:#e0e0e0"></path><circle cx="269.83" cy="127.65" r="3.61" style="fill:#e0e0e0"></circle><circle cx="250" cy="334.37" r="3.61" style="fill:#e0e0e0"></circle><path d="M270.36,127.65a2,2,0,0,1,0,.32c0,.23,0,.54,0,.93,0,.85,0,2.06,0,3.64,0,3.19,0,7.82.07,13.67,0,11.74.05,28.34.09,47.88v.1l-.07.07-20.35,20.37.08-.18v11.32c0,29.42-.06,56.06-.08,75.36,0,9.62-.06,17.42-.08,22.83,0,2.68,0,4.77,0,6.21,0,.69,0,1.23,0,1.61s0,.55,0,.55,0-.18,0-.55,0-.92,0-1.61c0-1.44,0-3.53,0-6.21,0-5.41-.05-13.21-.08-22.83,0-19.3,0-45.94-.08-75.36V214.34l.08-.08c7.19-7.18,14.07-14.06,20.37-20.34l-.07.17c0-19.54.07-36.14.09-47.88,0-5.85.06-10.48.07-13.67,0-1.58,0-2.79,0-3.64,0-.39,0-.7,0-.93A2,2,0,0,1,270.36,127.65Z" style="fill:#e0e0e0"></path></g><g id="freepik--Chair--inject-69"><path d="M161.83,332.4c-3.91-6.71-8.1-13.45-14.26-19-15.62-14.08-42.44-18.26-65.23-13.21C64.75,304.09,48.14,314,43.53,328c-2.09,6.31-1.62,13-1,19.46C46.85,390,68.14,467.16,69,469l143.54-.58C204.07,421.42,186.94,375.46,161.83,332.4Z" style="fill:#455a64"></path><path d="M212.51,468.37s-.09-.37-.23-1.1-.37-1.8-.65-3.21-.6-3.16-1-5.22-1-4.43-1.55-7.1a414.74,414.74,0,0,0-12.82-44.49,431.35,431.35,0,0,0-27.86-62.7L166,340.26,163.58,336c-1.63-2.88-3.29-5.78-5.09-8.64-3.58-5.71-7.78-11.3-13.34-15.6a23.08,23.08,0,0,0-2.11-1.57c-.73-.49-1.43-1-2.18-1.49-1.54-.87-3-1.86-4.64-2.6l-2.4-1.18-2.49-1-1.25-.51-1.27-.44-2.57-.88a85.05,85.05,0,0,0-21.67-3.58,92.26,92.26,0,0,0-21.91,1.94,74.21,74.21,0,0,0-20,7.41,50,50,0,0,0-8.58,5.86,38,38,0,0,0-6.86,7.49c-.45.72-.93,1.4-1.34,2.13s-.76,1.48-1.13,2.22-.61,1.55-.91,2.32a24.47,24.47,0,0,0-.69,2.36,36.94,36.94,0,0,0-.89,9.69c.09,3.22.38,6.4.76,9.52s.69,6.22,1.18,9.24c.85,6.07,1.87,11.93,2.89,17.58,2.06,11.32,4.33,21.79,6.45,31.34,4.29,19.08,8.2,34.43,11,45,1.38,5.29,2.49,9.39,3.25,12.17.39,1.38.69,2.43.89,3.15S69,469,69,469s-.13-.35-.37-1.05-.53-1.77-.94-3.14c-.79-2.77-1.94-6.86-3.35-12.15-2.82-10.57-6.79-25.9-11.12-45-2.14-9.55-4.43-20-6.51-31.34-1-5.66-2.06-11.52-2.92-17.59-.49-3-.8-6.13-1.19-9.26s-.69-6.31-.78-9.56a38,38,0,0,1,.89-9.81,22.89,22.89,0,0,1,.71-2.41c.3-.79.61-1.57.92-2.36L45.46,323c.42-.74.9-1.44,1.35-2.17a39,39,0,0,1,6.95-7.59,50.42,50.42,0,0,1,8.66-5.93,74.7,74.7,0,0,1,20.13-7.46,92.24,92.24,0,0,1,22-2,85.35,85.35,0,0,1,21.82,3.61l2.58.88,1.29.45,1.25.52,2.51,1,2.42,1.19c1.64.75,3.13,1.75,4.68,2.63.76.47,1.47,1,2.21,1.5a23.57,23.57,0,0,1,2.13,1.59c5.61,4.35,9.85,10,13.44,15.73,1.8,2.88,3.47,5.79,5.1,8.67l2.44,4.3,2.33,4.29a427.86,427.86,0,0,1,27.79,62.81,401.94,401.94,0,0,1,12.66,44.56l1.51,7.12c.42,2.06.73,3.82,1,5.23s.45,2.49.59,3.22S212.51,468.37,212.51,468.37Z" style="fill:#263238"></path><path d="M49.33,318s0,.14,0,.41-.1.67-.17,1.17c-.14,1-.3,2.55-.43,4.51a78.57,78.57,0,0,0,1.21,16.61c2.42,13.9,5.38,33.18,9.71,54.26,2.18,10.55,4.56,20.53,7.08,29.5s5.16,17,7.57,23.58,4.69,11.87,6.3,15.47l1.88,4.13.48,1.09a2.19,2.19,0,0,1,.14.37,201.81,201.81,0,0,1-9.14-20.93c-2.46-6.62-5.16-14.59-7.69-23.58s-5-19-7.13-29.52c-4.33-21.11-7.24-40.39-9.56-54.31a75.91,75.91,0,0,1-1-16.68A39.62,39.62,0,0,1,49.33,318Z" style="fill:#263238"></path><path d="M67.91,351.92c0,.09-1,.31-2.55.87a24.32,24.32,0,0,0-5.7,3,29.73,29.73,0,0,0-6.32,6.56A9,9,0,0,1,54.7,360a20.33,20.33,0,0,1,4.66-4.62,20.57,20.57,0,0,1,5.88-2.92A9.18,9.18,0,0,1,67.91,351.92Z" style="fill:#263238"></path><path d="M62.26,361.5c0,.16-1.9.1-4.13.62s-3.92,1.38-4,1.24A8.41,8.41,0,0,1,58,361.61,8.45,8.45,0,0,1,62.26,361.5Z" style="fill:#263238"></path><path d="M58.18,409.94c-.06,0,0-.28.18-.62a2.49,2.49,0,0,1,1.22-.93,2.45,2.45,0,0,1,1.53-.05c.38.12.56.3.53.36s-.91-.19-1.89.18S58.31,410,58.18,409.94Z" style="fill:#263238"></path><path d="M60.11,414c-.14,0-.06-1,.87-1.76s1.94-.6,1.91-.46-.83.25-1.58.87S60.26,414.06,60.11,414Z" style="fill:#263238"></path></g><g id="freepik--Screens--inject-69"><rect x="263.53" y="225.11" width="190.67" height="118.08" style="fill:#fafafa"></rect><path d="M454.2,343.19s0-.73,0-2.13,0-3.48,0-6.2c0-5.43,0-13.42,0-23.67,0-20.48-.06-50-.11-86.08l.21.2-190.65.06h0l.26-.26c0,41.86,0,81.77,0,118.08l-.24-.24,137.25.12,39.32.06,10.47,0,2.7,0h0l-2.67,0-10.43,0-39.26.06-137.41.12h-.24v-.24c0-36.31,0-76.22,0-118.08v-.26h.28l190.65.05h.2v.21c0,36.16-.08,65.7-.11,86.21,0,10.22,0,18.2-.05,23.62,0,2.7,0,4.76,0,6.16S454.2,343.19,454.2,343.19Z" style="fill:#263238"></path><path d="M454.1,236.63c0,.15-42.6.26-95.14.26s-95.14-.11-95.14-.26,42.59-.26,95.14-.26S454.1,236.49,454.1,236.63Z" style="fill:#263238"></path><path d="M273.67,231.42a1.57,1.57,0,1,1-1.57-1.57A1.56,1.56,0,0,1,273.67,231.42Z" style="fill:#263238"></path><path d="M279.32,231.42a1.56,1.56,0,1,1-1.56-1.57A1.56,1.56,0,0,1,279.32,231.42Z" style="fill:#263238"></path><circle cx="283.41" cy="231.42" r="1.56" style="fill:#263238"></circle><path d="M284.33,257.76l-4.53,1.74,4.53,1.75v1.06l-5.72-2.26V259l5.72-2.25Z" style="fill:#263238"></path><path d="M289,253.23h1.11l-4.21,12h-1.11Z" style="fill:#263238"></path><path d="M296.25,259v1.1l-5.72,2.26v-1.06l4.54-1.75-4.54-1.74V256.7Z" style="fill:#263238"></path><path d="M297.69,263.16a.85.85,0,0,1,.87-.86.83.83,0,0,1,.84.86.85.85,0,0,1-.84.88A.87.87,0,0,1,297.69,263.16Z" style="fill:#263238"></path><path d="M300.59,263.16a.84.84,0,0,1,.87-.86.83.83,0,0,1,.84.86.85.85,0,0,1-.84.88A.86.86,0,0,1,300.59,263.16Z" style="fill:#263238"></path><path d="M303.49,263.16a.84.84,0,0,1,.86-.86.83.83,0,0,1,.84.86.85.85,0,0,1-.84.88A.86.86,0,0,1,303.49,263.16Z" style="fill:#263238"></path><path d="M404.73,274.62c0,.14-28.19.26-63,.26s-62.95-.12-62.95-.26,28.18-.27,62.95-.27S404.73,274.47,404.73,274.62Z" style="fill:#263238"></path><path d="M425.29,275a70.52,70.52,0,0,1-12.1,0,70.52,70.52,0,0,1,12.1,0Z" style="fill:#263238"></path><path d="M443,275a84.15,84.15,0,0,1-13.22,0A84.15,84.15,0,0,1,443,275Z" style="fill:#263238"></path><path d="M359,285.22c0,.15-17.92.26-40,.26s-40-.11-40-.26,17.91-.26,40-.26S359,285.08,359,285.22Z" style="fill:#263238"></path><path d="M358.42,324.8c0,.15-17.91.26-40,.26s-40-.11-40-.26,17.91-.26,40-.26S358.42,324.66,358.42,324.8Z" style="fill:#263238"></path><path d="M388.07,285.22c0,.15-4.88.26-10.89.26s-10.89-.11-10.89-.26,4.88-.26,10.89-.26S388.07,285.08,388.07,285.22Z" style="fill:#263238"></path><path d="M387.84,324.8c0,.15-4.87.26-10.89.26s-10.88-.11-10.88-.26,4.87-.26,10.88-.26S387.84,324.66,387.84,324.8Z" style="fill:#263238"></path><path d="M284.23,290.62a14.15,14.15,0,0,1-5.4,0,14.15,14.15,0,0,1,5.4,0Z" style="fill:#263238"></path><path d="M302.84,290.73A32.65,32.65,0,0,1,297,291a32.58,32.58,0,0,1-5.86-.26,66.28,66.28,0,0,1,11.73,0Z" style="fill:#263238"></path><path d="M314.75,290.73a48.69,48.69,0,0,1-10.05,0,48.69,48.69,0,0,1,10.05,0Z" style="fill:#263238"></path><path d="M329.82,290.73a50.54,50.54,0,0,1-10.24,0,50.54,50.54,0,0,1,10.24,0Z" style="fill:#263238"></path><path d="M343,290.73a41.71,41.71,0,0,1-9.3,0,41.71,41.71,0,0,1,9.3,0Z" style="fill:#263238"></path><path d="M386.77,290.73c0,.15-9.17.26-20.47.26s-20.48-.11-20.48-.26,9.17-.26,20.48-.26S386.77,290.59,386.77,290.73Z" style="fill:#263238"></path><path d="M283.48,297.51a10.53,10.53,0,0,1-4.65,0,10.15,10.15,0,0,1,4.65,0Z" style="fill:#263238"></path><path d="M283.67,304.58a11.39,11.39,0,0,1-4.84,0,11.39,11.39,0,0,1,4.84,0Z" style="fill:#263238"></path><path d="M283.67,312.58a11.39,11.39,0,0,1-4.84,0,11.39,11.39,0,0,1,4.84,0Z" style="fill:#263238"></path><path d="M327.77,312.21c0,.14-8.08.26-18,.26s-18.05-.12-18.05-.26,8.08-.26,18.05-.26S327.77,312.06,327.77,312.21Z" style="fill:#263238"></path><path d="M324.61,304.58c0,.14-7.71.26-17.21.26s-17.22-.12-17.22-.26,7.71-.26,17.22-.26S324.61,304.43,324.61,304.58Z" style="fill:#263238"></path><path d="M407.79,297.13c0,.15-26.24.26-58.61.26s-58.63-.11-58.63-.26,26.24-.26,58.63-.26S407.79,297,407.79,297.13Z" style="fill:#263238"></path><rect x="286.48" y="65.51" width="80.34" height="138" style="fill:#fafafa"></rect><path d="M366.82,203.51s0-.23,0-.68,0-1.1,0-2c0-1.74,0-4.29,0-7.6,0-6.63,0-16.3-.06-28.5,0-24.38-.07-58.84-.12-99.26l.24.24-80.33,0h0l.26-.26c0,52.65,0,100.94-.05,138l-.21-.2,58.6.11,16.08.05,4.21,0,1.45,0-1.41,0-4.17,0-16,0-58.73.11h-.2v-.2c0-37.06,0-85.35-.06-138v-.26h.27l80.33,0h.24v.24c-.05,40.48-.09,75-.12,99.42,0,12.18-.05,21.83-.06,28.45,0,3.29,0,5.82,0,7.55,0,.84,0,1.49,0,1.93S366.82,203.51,366.82,203.51Z" style="fill:#263238"></path><circle cx="292.15" cy="71.59" r="1.63" style="fill:#263238"></circle><circle cx="298.04" cy="71.59" r="1.63" style="fill:#263238"></circle><path d="M305.56,71.59A1.63,1.63,0,1,1,303.93,70,1.63,1.63,0,0,1,305.56,71.59Z" style="fill:#263238"></path><path d="M344.74,109.22c0,.15-10.19.26-22.75.26s-22.74-.11-22.74-.26S309.43,109,322,109,344.74,109.08,344.74,109.22Z" style="fill:#263238"></path><path d="M354.22,120.27c0,.15-12.39.26-27.68.26s-27.68-.11-27.68-.26,12.39-.26,27.68-.26S354.22,120.13,354.22,120.27Z" style="fill:#263238"></path><path d="M356.48,161.5c0,.15-13.22.26-29.52.26s-29.51-.11-29.51-.26,13.21-.26,29.51-.26S356.48,161.36,356.48,161.5Z" style="fill:#263238"></path><path d="M303.51,125.89a15.31,15.31,0,0,1-5.62,0,15.31,15.31,0,0,1,5.62,0Z" style="fill:#263238"></path><path d="M322.9,126a71.81,71.81,0,0,1-12.21,0,71.81,71.81,0,0,1,12.21,0Z" style="fill:#263238"></path><path d="M335.3,126a52.73,52.73,0,0,1-10.46,0,52.73,52.73,0,0,1,10.46,0Z" style="fill:#263238"></path><path d="M302.74,133.07a11.44,11.44,0,0,1-4.85,0,11.44,11.44,0,0,1,4.85,0Z" style="fill:#263238"></path><path d="M302.93,140.43a12.34,12.34,0,0,1-5,0,12.34,12.34,0,0,1,5,0Z" style="fill:#263238"></path><path d="M302.93,148.77a12.34,12.34,0,0,1-5,0,12.34,12.34,0,0,1,5,0Z" style="fill:#263238"></path><path d="M348.87,148.38c0,.14-8.42.26-18.8.26s-18.8-.12-18.8-.26,8.41-.26,18.8-.26S348.87,148.24,348.87,148.38Z" style="fill:#263238"></path><path d="M345.58,140.43c0,.15-8,.26-17.93.26s-17.93-.11-17.93-.26,8-.26,17.93-.26S345.58,140.29,345.58,140.43Z" style="fill:#263238"></path><path d="M306.6,172.51a12.34,12.34,0,0,1-5,0,12.34,12.34,0,0,1,5,0Z" style="fill:#263238"></path><path d="M306.6,180.84a12.34,12.34,0,0,1-5,0,12.34,12.34,0,0,1,5,0Z" style="fill:#263238"></path><path d="M352.54,180.46c0,.14-8.42.26-18.8.26s-18.8-.12-18.8-.26,8.41-.26,18.8-.26S352.54,180.31,352.54,180.46Z" style="fill:#263238"></path><path d="M349.25,172.51c0,.14-8,.26-17.93.26s-17.93-.12-17.93-.26,8-.26,17.93-.26S349.25,172.37,349.25,172.51Z" style="fill:#263238"></path><path d="M358.91,132.68c0,.14-10.93.26-24.4.26s-24.41-.12-24.41-.26,10.93-.26,24.41-.26S358.91,132.54,358.91,132.68Z" style="fill:#263238"></path><path d="M366.06,78c0,.15-17.64.26-39.39.26s-39.4-.11-39.4-.26,17.64-.26,39.4-.26S366.06,77.82,366.06,78Z" style="fill:#263238"></path><path d="M315.86,102.56a67.56,67.56,0,0,1-8.32.26,67.7,67.7,0,0,1-8.32-.26,67.7,67.7,0,0,1,8.32-.26A67.56,67.56,0,0,1,315.86,102.56Z" style="fill:#263238"></path><path d="M306.44,87.49a29.68,29.68,0,0,1-7.84,0,29.68,29.68,0,0,1,7.84,0Z" style="fill:#263238"></path></g><g id="freepik--Device--inject-69"><path d="M349.6,469H210.15l18-97.86a7.31,7.31,0,0,1,7.19-6h125.3a7.31,7.31,0,0,1,7.18,8.69Z" style="fill:#455a64"></path><path d="M210.15,469H157.26l.22-.16a28.51,28.51,0,0,1,16.31-5.7L211.61,462Z" style="fill:#455a64"></path><path d="M243.65,365.23s-.39-.07-1.13-.08a7,7,0,0,0-3.1.77,9.45,9.45,0,0,0-3.71,3.38,18,18,0,0,0-2.28,6.33c-.46,2.47-.86,5.22-1.35,8.15s-1,6.07-1.66,9.35c-1.21,6.58-2.65,13.79-4.22,21.35-3.15,15.11-6.06,28.78-8,38.71-1,5-1.7,9-2.2,11.77-.25,1.36-.44,2.44-.58,3.21l-.17.83a1.49,1.49,0,0,1-.07.28,1.27,1.27,0,0,1,0-.29c0-.22.07-.5.11-.84l.49-3.22c.44-2.8,1.13-6.83,2-11.81,1.81-9.95,4.67-23.64,7.82-38.75,1.57-7.55,3-14.76,4.26-21.33.63-3.28,1.18-6.41,1.7-9.33s.93-5.66,1.42-8.16a18,18,0,0,1,2.39-6.41,9.66,9.66,0,0,1,3.87-3.4,6.8,6.8,0,0,1,3.19-.69A4.25,4.25,0,0,1,243.65,365.23Z" style="fill:#263238"></path><path d="M302.54,414.82a6.75,6.75,0,1,1-6.74-6.74A6.74,6.74,0,0,1,302.54,414.82Z" style="fill:#f5f5f5"></path></g><g id="freepik--Desk--inject-69"><path d="M477.32,469c0,.15-101.78.26-227.31.26S22.68,469.1,22.68,469s101.76-.26,227.33-.26S477.32,468.81,477.32,469Z" style="fill:#263238"></path></g><g id="freepik--Plant--inject-69"><path d="M466.57,397s0-.08-.09-.22l-.33-.61c-.31-.54-.78-1.31-1.45-2.26a24.27,24.27,0,0,0-7.14-6.75,17.53,17.53,0,0,0-6.41-2.36,15.9,15.9,0,0,0-7.79.82A12.67,12.67,0,0,0,436.7,391c-1.53,2.68-2,5.82-2.92,8.81a16.08,16.08,0,0,1-1.86,4.2,12.66,12.66,0,0,1-3.16,3.12c-1.2.88-2.44,1.67-3.57,2.6a15.08,15.08,0,0,0-2.9,3.14,19.26,19.26,0,0,0-3,7.25,25.94,25.94,0,0,0-.39,6.81,51.47,51.47,0,0,0,1.74,9.69c.29,1.13.54,2,.71,2.58a6.1,6.1,0,0,0,.3.89,8.16,8.16,0,0,0-.19-.92c-.15-.64-.36-1.5-.62-2.6a56.36,56.36,0,0,1-1.56-9.66,25.64,25.64,0,0,1,.45-6.7,19.06,19.06,0,0,1,2.94-7.06,14.61,14.61,0,0,1,2.82-3c1.1-.9,2.34-1.68,3.55-2.57a13.35,13.35,0,0,0,3.3-3.24A17,17,0,0,0,434.3,400c.9-3.05,1.4-6.14,2.86-8.7a12.11,12.11,0,0,1,6.38-5.25,15.39,15.39,0,0,1,7.54-.84,17.22,17.22,0,0,1,6.28,2.24,24.9,24.9,0,0,1,7.17,6.54c.69.93,1.19,1.68,1.52,2.19A8,8,0,0,0,466.57,397Z" style="fill:#e0e0e0"></path><path d="M427.36,408c.82-.76,1.22-.23,2.33,0a6.81,6.81,0,0,1,3,1.5,12.62,12.62,0,0,1,4.09,13.25,9.86,9.86,0,0,1-9-14.8" style="fill:#e0e0e0"></path><path d="M461.28,392.51c.42-1.05,1-.74,2.1-1a6.79,6.79,0,0,1,3.35.06,12.61,12.61,0,0,1,9.39,10.2,9.86,9.86,0,0,1-14.54-9.47" style="fill:#e0e0e0"></path><path d="M419.88,428.85a11.38,11.38,0,0,1,17.89.87,14.06,14.06,0,0,1-9.28,3.66,14.37,14.37,0,0,1-9.34-3.78" style="fill:#e0e0e0"></path><path d="M422.67,413.24A11.52,11.52,0,0,1,411,399.49a10.34,10.34,0,0,1,12,13.64" style="fill:#e0e0e0"></path><path d="M434.61,394.9a11.52,11.52,0,0,1-15.55-9.11,10.35,10.35,0,0,1,15.87,8.87" style="fill:#e0e0e0"></path><path d="M438.61,388.91a11.53,11.53,0,0,1,15.55,9.1,10.34,10.34,0,0,1-15.87-8.87" style="fill:#e0e0e0"></path><path d="M443.38,385.68a11.52,11.52,0,0,1-6.13-16.94,10.35,10.35,0,0,1,6.53,17" style="fill:#e0e0e0"></path><path d="M455.61,386.27A11.53,11.53,0,0,1,465,370.9a10.34,10.34,0,0,1-9.18,15.69" style="fill:#e0e0e0"></path><polyline points="406.32 468.92 399.81 428.03 449.73 428.64 444.81 468.38" style="fill:#263238"></polyline><path d="M427.86,420.56a8.51,8.51,0,0,0,8.29.7,9,9,0,0,0,4.53-7.16,9.58,9.58,0,0,0-13.77,5.73" style="fill:#263238"></path><path d="M450.68,429.37a8.54,8.54,0,0,0,8.29.7,9,9,0,0,0,4.53-7.16,9.57,9.57,0,0,0-13.77,5.73" style="fill:#263238"></path><path d="M437.87,409.7a8.49,8.49,0,0,0,6.54,5.14,8.94,8.94,0,0,0,7.72-3.49,10.17,10.17,0,0,0-6.67-4.9,10.05,10.05,0,0,0-8,2.12" style="fill:#263238"></path><path d="M446.2,419.89a8.51,8.51,0,0,0-7.45,3.69,9,9,0,0,0-.17,8.47,9.58,9.58,0,0,0,8.82-12" style="fill:#263238"></path><path d="M454.24,436a8.54,8.54,0,0,0,.2,8.32,9,9,0,0,0,7.61,3.73,10.19,10.19,0,0,0-.47-8.27c-1.31-2.38-3.68-3.56-6.64-4.24" style="fill:#263238"></path><path d="M467.51,437.88a6,6,0,0,0-2-1.26,8.41,8.41,0,0,0-2.71-.47,31.65,31.65,0,0,0-3.68.21,10.77,10.77,0,0,1-4.54-.39,6.92,6.92,0,0,1-3.74-3.62,20.65,20.65,0,0,1-1.62-5.52,15.64,15.64,0,0,0-1.92-5.66,20,20,0,0,0-4.22-4.3,20.09,20.09,0,0,1-4-4.1,13.51,13.51,0,0,1-2-9.39,13.13,13.13,0,0,1,2.45-6,9.46,9.46,0,0,1,1.2-1.32c.29-.28.46-.42.47-.4a3.4,3.4,0,0,1-.4.48,13.22,13.22,0,0,0-1.1,1.36,13.37,13.37,0,0,0-2.24,6,13.23,13.23,0,0,0,2,9.06,20.2,20.2,0,0,0,4,4,20.38,20.38,0,0,1,4.34,4.4,16.29,16.29,0,0,1,2,5.86,20.82,20.82,0,0,0,1.54,5.4,6.49,6.49,0,0,0,3.46,3.42,10.46,10.46,0,0,0,4.35.43,30.71,30.71,0,0,1,3.72-.14,8.54,8.54,0,0,1,2.78.58,4.82,4.82,0,0,1,1.5,1,2.72,2.72,0,0,1,.31.34C467.49,437.83,467.52,437.87,467.51,437.88Z" style="fill:#263238"></path><path d="M467.51,437.88a6,6,0,0,0-2-1.26,8.41,8.41,0,0,0-2.71-.47,31.65,31.65,0,0,0-3.68.21,10.77,10.77,0,0,1-4.54-.39,6.92,6.92,0,0,1-3.74-3.62,20.65,20.65,0,0,1-1.62-5.52,15.64,15.64,0,0,0-1.92-5.66,20,20,0,0,0-4.22-4.3,20.09,20.09,0,0,1-4-4.1,13.51,13.51,0,0,1-2-9.39,13.13,13.13,0,0,1,2.45-6,9.46,9.46,0,0,1,1.2-1.32c.29-.28.46-.42.47-.4a3.4,3.4,0,0,1-.4.48,13.22,13.22,0,0,0-1.1,1.36,13.37,13.37,0,0,0-2.24,6,13.23,13.23,0,0,0,2,9.06,20.2,20.2,0,0,0,4,4,20.38,20.38,0,0,1,4.34,4.4,16.29,16.29,0,0,1,2,5.86,20.82,20.82,0,0,0,1.54,5.4,6.49,6.49,0,0,0,3.46,3.42,10.46,10.46,0,0,0,4.35.43,30.71,30.71,0,0,1,3.72-.14,8.54,8.54,0,0,1,2.78.58,4.82,4.82,0,0,1,1.5,1,2.72,2.72,0,0,1,.31.34C467.49,437.83,467.52,437.87,467.51,437.88Z" style="fill:#263238"></path><path d="M372.21,442.07a12.62,12.62,0,0,0-17.09-12.44,21.07,21.07,0,0,0,16.65,12.28" style="fill:#263238"></path><path d="M368.92,443.81c-2.44,2.68-2.29,7-.54,10.17s4.75,5.44,7.76,7.45a16.41,16.41,0,0,0-7.06-18.6" style="fill:#263238"></path><path d="M380.74,431.24a14.58,14.58,0,0,0,16.57,13c-.95-3.93-2.53-7.88-5.56-10.54s-7.81-3.66-11.16-1.42" style="fill:#263238"></path><path d="M380.67,427.23c-.62-3.57-4.14-6.16-7.75-6.5s-7.17,1.21-10.07,3.39a13.08,13.08,0,0,0,17.85,1.76" style="fill:#263238"></path><path d="M362.07,457.61c-3.43,2.93-4.29,8.14-2.86,12.42s4.76,7.69,8.51,10.19c1.44-4.24,2.34-8.79,1.58-13.2s-3.42-8.67-7.52-10.47" style="fill:#263238"></path><path d="M380.11,417.21a10.54,10.54,0,0,1,16.68-1,9.1,9.1,0,0,1-16.42.43" style="fill:#263238"></path><path d="M384.31,406.91a13.69,13.69,0,0,1-17.46-10.71,31.64,31.64,0,0,1,8.25.12,13.52,13.52,0,0,1,7.3,3.6,7.26,7.26,0,0,1,1.91,7" style="fill:#263238"></path><path d="M392.23,404.25a11.2,11.2,0,0,1-.07-17.28,23.34,23.34,0,0,1,4.89,10.44,8.77,8.77,0,0,1,0,4.32,4,4,0,0,1-3,2.83" style="fill:#263238"></path><g style="opacity:0.4"><path d="M372.21,442.07a12.62,12.62,0,0,0-17.09-12.44,21.07,21.07,0,0,0,16.65,12.28"></path></g><g style="opacity:0.4"><path d="M368.92,443.81c-2.44,2.68-2.29,7-.54,10.17s4.75,5.44,7.76,7.45a16.41,16.41,0,0,0-7.06-18.6"></path></g><g style="opacity:0.4"><path d="M380.74,431.24a14.58,14.58,0,0,0,16.57,13c-.95-3.93-2.53-7.88-5.56-10.54s-7.81-3.66-11.16-1.42"></path></g><g style="opacity:0.4"><path d="M380.67,427.23c-.62-3.57-4.14-6.16-7.75-6.5s-7.17,1.21-10.07,3.39a13.08,13.08,0,0,0,17.85,1.76"></path></g><g style="opacity:0.4"><path d="M362.07,457.61c-3.43,2.93-4.29,8.14-2.86,12.42s4.76,7.69,8.51,10.19c1.44-4.24,2.34-8.79,1.58-13.2s-3.42-8.67-7.52-10.47"></path></g><g style="opacity:0.4"><path d="M380.11,417.21a10.54,10.54,0,0,1,16.68-1,9.1,9.1,0,0,1-16.42.43"></path></g><g style="opacity:0.4"><path d="M384.31,406.91a13.69,13.69,0,0,1-17.46-10.71,31.64,31.64,0,0,1,8.25.12,13.52,13.52,0,0,1,7.3,3.6,7.26,7.26,0,0,1,1.91,7"></path></g><g style="opacity:0.4"><path d="M392.23,404.25a11.2,11.2,0,0,1-.07-17.28,23.34,23.34,0,0,1,4.89,10.44,8.77,8.77,0,0,1,0,4.32,4,4,0,0,1-3,2.83"></path></g><path d="M405.92,429.35a1.1,1.1,0,0,1,0-.29c0-.21,0-.48.05-.82,0-.72.12-1.79.14-3.16a28.32,28.32,0,0,0-1.85-11.34,17.45,17.45,0,0,0-4.57-6.42,12.12,12.12,0,0,0-8.3-3.05,10.39,10.39,0,0,0-4.68,1.17,9.36,9.36,0,0,0-3.62,3.45c-1.81,3-2.26,6.74-2.1,10.43s.66,7.4.25,11a16.82,16.82,0,0,1-1.37,5.09,10.65,10.65,0,0,1-3.07,4,15.45,15.45,0,0,1-4.27,2.19,21.94,21.94,0,0,0-4,1.83,14.64,14.64,0,0,0-5.29,5.77,14,14,0,0,0-1.53,6.31,14.88,14.88,0,0,0,.8,4.88,18.28,18.28,0,0,0,1.89,3.79s-.07-.07-.18-.21-.29-.37-.48-.67a13.33,13.33,0,0,1-1.43-2.84,14.69,14.69,0,0,1-.9-4.95,14.15,14.15,0,0,1,1.49-6.48,14.8,14.8,0,0,1,5.4-6c2.47-1.65,5.72-2.05,8.23-4s3.84-5.35,4.22-8.78-.12-7.13-.26-10.9.29-7.6,2.19-10.72a9.77,9.77,0,0,1,3.83-3.64,10.76,10.76,0,0,1,4.91-1.21A12.62,12.62,0,0,1,400,407a17.67,17.67,0,0,1,4.62,6.61,23.67,23.67,0,0,1,1.57,6.48,35.7,35.7,0,0,1,.14,5c-.06,1.38-.16,2.44-.24,3.16,0,.33-.07.6-.1.82A1.18,1.18,0,0,1,405.92,429.35Z" style="fill:#263238"></path><g style="opacity:0.4"><path d="M405.92,429.35a1.1,1.1,0,0,1,0-.29c0-.21,0-.48.05-.82,0-.72.12-1.79.14-3.16a28.32,28.32,0,0,0-1.85-11.34,17.45,17.45,0,0,0-4.57-6.42,12.12,12.12,0,0,0-8.3-3.05,10.39,10.39,0,0,0-4.68,1.17,9.36,9.36,0,0,0-3.62,3.45c-1.81,3-2.26,6.74-2.1,10.43s.66,7.4.25,11a16.82,16.82,0,0,1-1.37,5.09,10.65,10.65,0,0,1-3.07,4,15.45,15.45,0,0,1-4.27,2.19,21.94,21.94,0,0,0-4,1.83,14.64,14.64,0,0,0-5.29,5.77,14,14,0,0,0-1.53,6.31,14.88,14.88,0,0,0,.8,4.88,18.28,18.28,0,0,0,1.89,3.79s-.07-.07-.18-.21-.29-.37-.48-.67a13.33,13.33,0,0,1-1.43-2.84,14.69,14.69,0,0,1-.9-4.95,14.15,14.15,0,0,1,1.49-6.48,14.8,14.8,0,0,1,5.4-6c2.47-1.65,5.72-2.05,8.23-4s3.84-5.35,4.22-8.78-.12-7.13-.26-10.9.29-7.6,2.19-10.72a9.77,9.77,0,0,1,3.83-3.64,10.76,10.76,0,0,1,4.91-1.21A12.62,12.62,0,0,1,400,407a17.67,17.67,0,0,1,4.62,6.61,23.67,23.67,0,0,1,1.57,6.48,35.7,35.7,0,0,1,.14,5c-.06,1.38-.16,2.44-.24,3.16,0,.33-.07.6-.1.82A1.18,1.18,0,0,1,405.92,429.35Z"></path></g><path d="M478.61,420.42a10.73,10.73,0,0,0,.75-3.66,9.2,9.2,0,0,0-1-4.22,8.81,8.81,0,0,0-4.08-3.93,9,9,0,0,0-3.2-.87,10.43,10.43,0,0,0-3.59.43c-2.45.64-4.87,2-7.76,2.6a9.05,9.05,0,0,1-4.5-.11,6.76,6.76,0,0,1-3.66-2.92c-1.75-2.71-2.24-6.1-4.34-8.59a8.6,8.6,0,0,0-3.95-2.58,11,11,0,0,0-4.61-.47,11.85,11.85,0,0,0-7.66,4,18,18,0,0,0-3.8,7,21.24,21.24,0,0,0-.85,7,76.82,76.82,0,0,0,1.29,10.2q.3,1.74.48,2.76c0,.29.08.53.11.72a.94.94,0,0,1,0,.25.75.75,0,0,1-.08-.24l-.16-.71-.57-2.75A68.07,68.07,0,0,1,426,414.11a21.18,21.18,0,0,1,.8-7.11,18.36,18.36,0,0,1,3.86-7.25,14,14,0,0,1,3.5-2.8,12,12,0,0,1,9.31-.89,9.14,9.14,0,0,1,4.19,2.73c2.23,2.67,2.7,6.09,4.37,8.66a6.26,6.26,0,0,0,3.38,2.72,8.62,8.62,0,0,0,4.25.11c2.78-.53,5.22-1.9,7.73-2.55a10.7,10.7,0,0,1,3.74-.4,9.36,9.36,0,0,1,7.52,5.08,9.28,9.28,0,0,1,.91,4.36,8.7,8.7,0,0,1-.54,2.76A4,4,0,0,1,478.61,420.42Z" style="fill:#263238"></path><path d="M449.42,402.31a9.71,9.71,0,0,0,8.9.58,9,9,0,0,0,4.53-7.16,9.58,9.58,0,0,0-13.77,5.73" style="fill:#263238"></path><path d="M458.88,410.89A9.7,9.7,0,0,0,463,418.8a9,9,0,0,0,8.48.14,9.59,9.59,0,0,0-12.06-8.78" style="fill:#263238"></path><path d="M475.3,409a9.68,9.68,0,0,0,8.91-.37A9,9,0,0,0,488,401a9.59,9.59,0,0,0-13.09,7.16" style="fill:#263238"></path><path d="M435.63,396.62c-2.4-2.06-4-5.68-3.54-8.4a9,9,0,0,1,5.5-6.45,9.58,9.58,0,0,1-1.4,14.85" style="fill:#263238"></path><path d="M371.52,384.87s0-.08.1-.22L372,384a23.86,23.86,0,0,1,1.45-2.26,24.14,24.14,0,0,1,7.14-6.75,17.46,17.46,0,0,1,6.41-2.36,16,16,0,0,1,7.78.82A12.66,12.66,0,0,1,401.4,379c1.53,2.67,2,5.81,2.92,8.8a15.51,15.51,0,0,0,1.86,4.21,12.62,12.62,0,0,0,3.16,3.11c1.19.88,2.44,1.67,3.57,2.6a15,15,0,0,1,2.89,3.14,19.26,19.26,0,0,1,3,7.25,25.54,25.54,0,0,1,.4,6.81,51.76,51.76,0,0,1-1.74,9.7c-.3,1.12-.55,2-.72,2.57a5.56,5.56,0,0,1-.29.89,6.07,6.07,0,0,1,.19-.91c.15-.64.35-1.51.61-2.61a55.23,55.23,0,0,0,1.57-9.66,25.67,25.67,0,0,0-.46-6.7,18.9,18.9,0,0,0-2.94-7.06,14.56,14.56,0,0,0-2.81-3c-1.1-.9-2.34-1.68-3.55-2.57a13,13,0,0,1-3.3-3.24,16.18,16.18,0,0,1-1.93-4.35c-.91-3.05-1.4-6.14-2.86-8.7a12.23,12.23,0,0,0-6.38-5.25,15.43,15.43,0,0,0-7.55-.84,17.35,17.35,0,0,0-6.28,2.24,24.85,24.85,0,0,0-7.16,6.54c-.7.93-1.2,1.68-1.53,2.19A5.06,5.06,0,0,1,371.52,384.87Z" style="fill:#263238"></path><path d="M410.74,395.86c-.83-.76-1.23-.23-2.34,0a7.09,7.09,0,0,0-3,1.5,12.64,12.64,0,0,0-4.09,13.25,9.85,9.85,0,0,0,9.05-14.8" style="fill:#263238"></path><path d="M376.82,380.42c-.42-1.05-1-.74-2.1-1a6.79,6.79,0,0,0-3.35.06,12.64,12.64,0,0,0-9.4,10.2,9.85,9.85,0,0,0,14.54-9.47" style="fill:#263238"></path><path d="M418.21,416.76a11.38,11.38,0,0,0-17.88.87,14,14,0,0,0,9.27,3.66,14.35,14.35,0,0,0,9.34-3.78" style="fill:#263238"></path><path d="M415.43,401.16a11.53,11.53,0,0,0,11.64-13.76A10.35,10.35,0,0,0,415,401" style="fill:#263238"></path><path d="M403.49,382.81A11.53,11.53,0,0,0,419,373.7a10.36,10.36,0,0,0-15.88,8.87" style="fill:#263238"></path><path d="M399.48,376.82a11.53,11.53,0,0,0-15.55,9.1,10.34,10.34,0,0,0,15.87-8.87" style="fill:#263238"></path><path d="M394.71,373.59a11.52,11.52,0,0,0,6.14-16.94,10.35,10.35,0,0,0-6.54,17" style="fill:#263238"></path><path d="M382.48,374.18a11.52,11.52,0,0,0-9.41-15.37,10.35,10.35,0,0,0,9.19,15.69" style="fill:#263238"></path><polygon points="399.17 464.18 402.99 468.92 449.97 468.92 453.17 464.18 399.17 464.18" style="fill:#263238"></polygon><path d="M452.14,464.14c0,.15-11.54.27-25.78.27s-25.79-.12-25.79-.27,11.54-.27,25.79-.27S452.14,464,452.14,464.14Z" style="fill:#455a64"></path><path d="M446.86,446.3a2.13,2.13,0,0,1-.29.38,11.22,11.22,0,0,1-1,1,17.64,17.64,0,0,1-4.2,2.91,18.34,18.34,0,0,1-7.33,1.88,17.39,17.39,0,0,1-4.49-.37,26.62,26.62,0,0,1-4.57-1.52c-3-1.29-5.78-2.76-8.46-3.61a14.57,14.57,0,0,0-7.31-.7,9.4,9.4,0,0,0-4.49,2.08c-.89.78-1.23,1.36-1.28,1.33a2.05,2.05,0,0,1,.24-.43,7.82,7.82,0,0,1,.9-1.06,9.35,9.35,0,0,1,4.55-2.3,14.65,14.65,0,0,1,7.54.61c2.74.84,5.53,2.31,8.52,3.58a26.49,26.49,0,0,0,4.48,1.5,17.68,17.68,0,0,0,4.35.4,18.82,18.82,0,0,0,7.19-1.73A22.4,22.4,0,0,0,446.86,446.3Z" style="fill:#455a64"></path><path d="M447.33,442.63a1.74,1.74,0,0,1-.33.36,10.6,10.6,0,0,1-1,.94,19.41,19.41,0,0,1-4.35,2.7,20.33,20.33,0,0,1-7.39,1.76,19.36,19.36,0,0,1-4.5-.3,29.09,29.09,0,0,1-4.64-1.31c-3.1-1.13-6-2.42-8.67-3.18a17.17,17.17,0,0,0-7.37-.67,11.09,11.09,0,0,0-4.65,1.78c-1,.68-1.4,1.21-1.44,1.17s.08-.15.29-.39a8,8,0,0,1,1-.95,10.68,10.68,0,0,1,4.71-2,17.27,17.27,0,0,1,7.57.57c2.77.75,5.64,2,8.71,3.15a31.38,31.38,0,0,0,4.56,1.3,20.05,20.05,0,0,0,4.38.33,20.73,20.73,0,0,0,7.25-1.62A25.81,25.81,0,0,0,447.33,442.63Z" style="fill:#455a64"></path></g></svg>